<?xml version="1.0" encoding="iso-8859-1"?>
<!-- Generator: Adobe Illustrator 16.0.0, SVG Export Plug-In . SVG Version: 6.00 Build 0)  -->
<!DOCTYPE svg PUBLIC "-//W3C//DTD SVG 1.1//EN" "http://www.w3.org/Graphics/SVG/1.1/DTD/svg11.dtd">
<svg version="1.1" id="Capa_1" xmlns="http://www.w3.org/2000/svg" xmlns:xlink="http://www.w3.org/1999/xlink" x="0px" y="0px"
	 width="215.533px" height="215.533px" viewBox="0 0 215.533 215.533" style="enable-background:new 0 0 215.533 215.533;"
	 xml:space="preserve">
<g>
	<g>
		<path d="M56.528,0v73.763c0,6.877-5.596,12.473-12.485,12.473H27.413c-6.885,0-12.485-5.596-12.485-12.473V0L6.608,16.637v57.11
			c0,11.461,9.327,20.789,20.796,20.789h4.152v36.646h-4.067c0,11.614-3.903,31.724-3.903,44.916
			c0,25.122,5.428,39.429,12.132,39.429c6.701,0,12.128-14.307,12.128-39.429c0-13.192-3.903-33.286-3.903-44.916h-4.052V94.535
			h4.152c11.473,0,20.798-9.327,20.798-20.789v-57.11L56.528,0z"/>
		<path d="M204.997,131.189h-4.151V0c-12.146,7.552-24.272,41.813-24.272,82.855c0,21.544,16.037,2.817,16.13,27.539v20.795h-4.147
			c0,11.621-3.896,31.738-3.896,44.923c0,25.131,5.405,39.421,12.13,39.421c6.705,0,12.135-14.29,12.135-39.421
			C208.893,162.928,204.997,142.827,204.997,131.189z"/>
		<path d="M145.095,6.271c-3.526-4.039-8.572-6.264-14.215-6.264H97.601c-5.652,0-10.702,2.23-14.225,6.264
			c-3.519,4.052-5.055,9.341-4.286,14.934l3.829,28.301c1.499,11.078,11.822,20.089,23.002,20.089h4.152v61.595h-4.065
			c0,11.621-3.903,31.738-3.903,44.923c0,25.131,5.428,39.421,12.132,39.421c6.709,0,12.127-14.29,12.127-39.421
			c0-13.2-3.907-33.285-3.907-44.923h-4.088V69.595h4.155c11.177,0,21.496-8.994,22.999-20.089l3.835-28.292
			C150.156,15.625,148.621,10.315,145.095,6.271z M100.5,51.108c-1.641,0.114-3.102-0.897-3.236-2.27l-3.817-36.471
			c-0.138-1.377,1.076-2.585,2.717-2.711c1.641-0.126,3.102,0.898,3.234,2.27l3.807,36.466
			C103.339,49.762,102.131,50.99,100.5,51.108z M117.219,48.69c0,1.372-1.334,2.486-2.989,2.486c-1.641,0-2.978-1.122-2.978-2.486
			V12.083c0-1.376,1.337-2.481,2.978-2.481c1.655,0,2.989,1.116,2.989,2.481V48.69z M131.201,48.838
			c-0.145,1.373-1.591,2.384-3.234,2.27c-1.623-0.126-2.837-1.346-2.713-2.711l3.812-36.463c0.144-1.373,1.595-2.396,3.233-2.27
			c1.639,0.126,2.846,1.334,2.721,2.711L131.201,48.838z"/>
	</g>
</g>
<g>
</g>
<g>
</g>
<g>
</g>
<g>
</g>
<g>
</g>
<g>
</g>
<g>
</g>
<g>
</g>
<g>
</g>
<g>
</g>
<g>
</g>
<g>
</g>
<g>
</g>
<g>
</g>
<g>
</g>
</svg>
